<mxfile host="drawio-plugin" modified="2021-05-19T16:48:57.742Z" agent="5.0 (X11; Linux x86_64) AppleWebKit/537.36 (KHTML, like Gecko) Chrome/87.0.4280.141 Safari/537.36" etag="T4_T8r14HVYfzXSwfg1u" version="14.6.6" type="embed"><diagram id="23iRSUPoRavnBvh4doch" name="Page-1"><mxGraphModel dx="851" dy="701" grid="1" gridSize="10" guides="1" tooltips="1" connect="1" arrows="1" fold="1" page="1" pageScale="1" pageWidth="827" pageHeight="1169" math="0" shadow="0"><root><mxCell id="0"/><mxCell id="1" parent="0"/><mxCell id="3" value="&lt;span style=&quot;background-color: rgb(255 , 255 , 255)&quot;&gt;&lt;font color=&quot;#000000&quot;&gt;registering&lt;br&gt;process&lt;/font&gt;&lt;/span&gt;" style="shape=umlLifeline;participant=umlControl;perimeter=lifelinePerimeter;whiteSpace=wrap;html=1;container=1;collapsible=0;recursiveResize=0;verticalAlign=top;spacingTop=36;outlineConnect=0;" vertex="1" parent="1"><mxGeometry x="320" y="160" width="40" height="500" as="geometry"/></mxCell><mxCell id="10" value="" style="html=1;points=[];perimeter=orthogonalPerimeter;" vertex="1" parent="3"><mxGeometry x="15" y="90" width="10" height="410" as="geometry"/></mxCell><mxCell id="5" value="" style="shape=umlLifeline;participant=umlActor;perimeter=lifelinePerimeter;whiteSpace=wrap;html=1;container=1;collapsible=0;recursiveResize=0;verticalAlign=top;spacingTop=36;outlineConnect=0;" vertex="1" parent="1"><mxGeometry x="80" y="160" width="20" height="300" as="geometry"/></mxCell><mxCell id="6" value="&lt;span style=&quot;background-color: rgb(255 , 255 , 255)&quot;&gt;&lt;font color=&quot;#000000&quot;&gt;Mr. Map&lt;/font&gt;&lt;/span&gt;" style="shape=umlLifeline;participant=umlBoundary;perimeter=lifelinePerimeter;whiteSpace=wrap;html=1;container=1;collapsible=0;recursiveResize=0;verticalAlign=top;spacingTop=36;outlineConnect=0;" vertex="1" parent="1"><mxGeometry x="180" y="160" width="50" height="300" as="geometry"/></mxCell><mxCell id="7" value="" style="html=1;points=[];perimeter=orthogonalPerimeter;" vertex="1" parent="6"><mxGeometry x="20" y="80" width="10" height="30" as="geometry"/></mxCell><mxCell id="8" value="register" style="html=1;verticalAlign=bottom;endArrow=block;entryX=0;entryY=0;" edge="1" target="7" parent="1" source="5"><mxGeometry relative="1" as="geometry"><mxPoint x="410" y="390" as="sourcePoint"/></mxGeometry></mxCell><mxCell id="9" value="process id" style="html=1;verticalAlign=bottom;endArrow=open;dashed=1;endSize=8;exitX=0;exitY=0.95;" edge="1" source="7" parent="1" target="5"><mxGeometry relative="1" as="geometry"><mxPoint x="410" y="466" as="targetPoint"/></mxGeometry></mxCell><mxCell id="11" value="start celery task" style="html=1;verticalAlign=bottom;startArrow=oval;endArrow=block;startSize=8;" edge="1" target="10" parent="1" source="7"><mxGeometry relative="1" as="geometry"><mxPoint x="230" y="229" as="sourcePoint"/></mxGeometry></mxCell><mxCell id="12" value="&lt;span style=&quot;background-color: rgb(255 , 255 , 255)&quot;&gt;&lt;font color=&quot;#000000&quot;&gt;remote service&lt;/font&gt;&lt;/span&gt;" style="shape=umlLifeline;participant=umlBoundary;perimeter=lifelinePerimeter;whiteSpace=wrap;html=1;container=1;collapsible=0;recursiveResize=0;verticalAlign=top;spacingTop=36;outlineConnect=0;" vertex="1" parent="1"><mxGeometry x="420" y="160" width="50" height="140" as="geometry"/></mxCell><mxCell id="13" value="" style="html=1;points=[];perimeter=orthogonalPerimeter;" vertex="1" parent="12"><mxGeometry x="20" y="100" width="10" height="20" as="geometry"/></mxCell><mxCell id="14" value="GetCapabilities" style="html=1;verticalAlign=bottom;endArrow=block;entryX=0;entryY=0;" edge="1" target="13" parent="1" source="10"><mxGeometry relative="1" as="geometry"><mxPoint x="360" y="240" as="sourcePoint"/></mxGeometry></mxCell><mxCell id="15" value="xml" style="html=1;verticalAlign=bottom;endArrow=open;dashed=1;endSize=8;exitX=0;exitY=0.95;" edge="1" source="13" parent="1" target="10"><mxGeometry relative="1" as="geometry"><mxPoint x="340" y="259" as="targetPoint"/></mxGeometry></mxCell><mxCell id="16" value="&lt;span style=&quot;background-color: rgb(255 , 255 , 255)&quot;&gt;&lt;font color=&quot;#000000&quot;&gt;capabilites parser&lt;/font&gt;&lt;/span&gt;" style="shape=umlLifeline;participant=umlControl;perimeter=lifelinePerimeter;whiteSpace=wrap;html=1;container=1;collapsible=0;recursiveResize=0;verticalAlign=top;spacingTop=36;outlineConnect=0;" vertex="1" parent="1"><mxGeometry x="530" y="160" width="40" height="180" as="geometry"/></mxCell><mxCell id="17" value="" style="html=1;points=[];perimeter=orthogonalPerimeter;" vertex="1" parent="16"><mxGeometry x="15" y="150" width="10" height="20" as="geometry"/></mxCell><mxCell id="18" value="parse capabilities" style="html=1;verticalAlign=bottom;endArrow=block;entryX=0;entryY=0;" edge="1" target="17" parent="1" source="3"><mxGeometry relative="1" as="geometry"><mxPoint x="359" y="310" as="sourcePoint"/></mxGeometry></mxCell><mxCell id="19" value="XmlService" style="html=1;verticalAlign=bottom;endArrow=open;dashed=1;endSize=8;exitX=0;exitY=0.95;" edge="1" source="17" parent="1" target="10"><mxGeometry relative="1" as="geometry"><mxPoint x="470" y="376" as="targetPoint"/></mxGeometry></mxCell><mxCell id="20" value="&lt;span style=&quot;background-color: rgb(255 , 255 , 255)&quot;&gt;&lt;font color=&quot;#000000&quot;&gt;ServiceXmlManager&lt;/font&gt;&lt;/span&gt;" style="shape=umlLifeline;participant=umlControl;perimeter=lifelinePerimeter;whiteSpace=wrap;html=1;container=1;collapsible=0;recursiveResize=0;verticalAlign=top;spacingTop=36;outlineConnect=0;" vertex="1" parent="1"><mxGeometry x="630" y="160" width="40" height="240" as="geometry"/></mxCell><mxCell id="25" value="" style="html=1;points=[];perimeter=orthogonalPerimeter;" vertex="1" parent="20"><mxGeometry x="16" y="190" width="10" height="30" as="geometry"/></mxCell><mxCell id="21" value="par" style="shape=umlFrame;whiteSpace=wrap;html=1;" vertex="1" parent="1"><mxGeometry x="390" y="490" width="280" height="90" as="geometry"/></mxCell><mxCell id="22" value="" style="html=1;points=[];perimeter=orthogonalPerimeter;" vertex="1" parent="1"><mxGeometry x="646" y="540" width="10" height="35" as="geometry"/></mxCell><mxCell id="23" value="parse remote metadata" style="html=1;verticalAlign=bottom;endArrow=block;entryX=0;entryY=0;" edge="1" target="22" parent="1"><mxGeometry relative="1" as="geometry"><mxPoint x="339.66666666666674" y="540" as="sourcePoint"/></mxGeometry></mxCell><mxCell id="24" value="(ContentType, id)" style="html=1;verticalAlign=bottom;endArrow=open;dashed=1;endSize=8;exitX=0;exitY=0.95;" edge="1" source="22" parent="1"><mxGeometry relative="1" as="geometry"><mxPoint x="339.66666666666674" y="573.2500000000002" as="targetPoint"/></mxGeometry></mxCell><mxCell id="26" value="create Service" style="html=1;verticalAlign=bottom;endArrow=block;entryX=0;entryY=0;" edge="1" target="25" parent="1" source="3"><mxGeometry relative="1" as="geometry"><mxPoint x="576" y="330" as="sourcePoint"/></mxGeometry></mxCell><mxCell id="27" value="Service" style="html=1;verticalAlign=bottom;endArrow=open;dashed=1;endSize=8;exitX=0;exitY=0.95;" edge="1" source="25" parent="1" target="3"><mxGeometry relative="1" as="geometry"><mxPoint x="420" y="406" as="targetPoint"/></mxGeometry></mxCell><mxCell id="30" value="&lt;span style=&quot;background-color: rgb(255 , 255 , 255)&quot;&gt;&lt;font color=&quot;#000000&quot;&gt;ServiceXmlManager&lt;/font&gt;&lt;/span&gt;" style="shape=umlLifeline;participant=umlControl;perimeter=lifelinePerimeter;whiteSpace=wrap;html=1;container=1;collapsible=0;recursiveResize=0;verticalAlign=top;spacingTop=36;outlineConnect=0;" vertex="1" parent="1"><mxGeometry x="750" y="160" width="40" height="240" as="geometry"/></mxCell><mxCell id="31" value="" style="html=1;points=[];perimeter=orthogonalPerimeter;" vertex="1" parent="30"><mxGeometry x="16" y="190" width="10" height="30" as="geometry"/></mxCell></root></mxGraphModel></diagram></mxfile>